<svg xmlns="http://www.w3.org/2000/svg" version="1.1" width="20.5in" height="6.5in" viewBox = " 0 0 1845 585" >
<!-- Front--> 
<g transform="translate(22.5, 22.5) " > 
<polygon style="stroke:#000000; fill:none; stroke-width:0.9" points="0, 0 45, 0 45, 10.62 90, 10.62 90, 0 126, 0 126, 10.62 162, 10.62 162, 0 198, 0 198, 10.62 234, 10.62 234, 0 270, 0 270, 10.62 306, 10.62 306, 0 342, 0 342, 10.62 378, 10.62 378, 0 414, 0 414, 10.62 450, 10.62 450, 0 486, 0 486, 10.62 522, 10.62 522, 0 558, 0 558, 10.62 594, 10.62 594, 0 630, 0 630, 10.62 675, 10.62 675, 0 720, 0 720, 36 709.38, 36 709.38, 72 720, 72 720, 108 709.38, 108 709.38, 144 720, 144 720, 180 675, 180 675, 169.38 630, 169.38 630, 180 594, 180 594, 169.38 558, 169.38 558, 180 522, 180 522, 169.38 486, 169.38 486, 180 450, 180 450, 169.38 414, 169.38 414, 180 378, 180 378, 169.38 342, 169.38 342, 180 306, 180 306, 169.38 270, 169.38 270, 180 234, 180 234, 169.38 198, 169.38 198, 180 162, 180 162, 169.38 126, 169.38 126, 180 90, 180 90, 169.38 45, 169.38 45, 180 0, 180 0, 144 10.62, 144 10.62, 108 0, 108 0, 72 10.62, 72 10.62, 36 0, 36 "/> 
</g>
<!-- Back--> 
<g transform="translate(742.5, 22.5) " > 
<polygon style="stroke:#000000; fill:none; stroke-width:0.9" points="0, 0 45, 0 45, 10.62 90, 10.62 90, 0 126, 0 126, 10.62 162, 10.62 162, 0 198, 0 198, 10.62 234, 10.62 234, 0 270, 0 270, 10.62 306, 10.62 306, 0 342, 0 342, 10.62 378, 10.62 378, 0 414, 0 414, 10.62 450, 10.62 450, 0 486, 0 486, 10.62 522, 10.62 522, 0 558, 0 558, 10.62 594, 10.62 594, 0 630, 0 630, 10.62 675, 10.62 675, 0 720, 0 720, 36 709.38, 36 709.38, 72 720, 72 720, 108 709.38, 108 709.38, 144 720, 144 720, 180 675, 180 675, 169.38 630, 169.38 630, 180 594, 180 594, 169.38 558, 169.38 558, 180 522, 180 522, 169.38 486, 169.38 486, 180 450, 180 450, 169.38 414, 169.38 414, 180 378, 180 378, 169.38 342, 169.38 342, 180 306, 180 306, 169.38 270, 169.38 270, 180 234, 180 234, 169.38 198, 169.38 198, 180 162, 180 162, 169.38 126, 169.38 126, 180 90, 180 90, 169.38 45, 169.38 45, 180 0, 180 0, 144 10.62, 144 10.62, 108 0, 108 0, 72 10.62, 72 10.62, 36 0, 36 "/> 
</g>
<!-- Left--> 
<g transform="translate(1462.5, 22.5) " > 
<polygon style="stroke:#000000; fill:none; stroke-width:0.9" points="10.62, 0 45, 0 45, 10.62 90, 10.62 90, 0 126, 0 126, 10.62 162, 10.62 162, 0 198, 0 198, 10.62 234, 10.62 234, 0 270, 0 270, 10.62 315, 10.62 315, 0 349.38, 0 349.38, 36 360, 36 360, 72 349.38, 72 349.38, 108 360, 108 360, 144 349.38, 144 349.38, 180 315, 180 315, 169.38 270, 169.38 270, 180 234, 180 234, 169.38 198, 169.38 198, 180 162, 180 162, 169.38 126, 169.38 126, 180 90, 180 90, 169.38 45, 169.38 45, 180 10.62, 180 10.62, 144 0, 144 0, 108 10.62, 108 10.62, 72 0, 72 0, 36 10.62, 36 "/> 
</g>
<!-- Right--> 
<g transform="translate(1462.5, 202.5) " > 
<polygon style="stroke:#000000; fill:none; stroke-width:0.9" points="10.62, 0 45, 0 45, 10.62 90, 10.62 90, 0 126, 0 126, 10.62 162, 10.62 162, 0 198, 0 198, 10.62 234, 10.62 234, 0 270, 0 270, 10.62 315, 10.62 315, 0 349.38, 0 349.38, 36 360, 36 360, 72 349.38, 72 349.38, 108 360, 108 360, 144 349.38, 144 349.38, 180 315, 180 315, 169.38 270, 169.38 270, 180 234, 180 234, 169.38 198, 169.38 198, 180 162, 180 162, 169.38 126, 169.38 126, 180 90, 180 90, 169.38 45, 169.38 45, 180 10.62, 180 10.62, 144 0, 144 0, 108 10.62, 108 10.62, 72 0, 72 0, 36 10.62, 36 "/> 
</g>
<!-- Top--> 
<g transform="translate(22.5, 202.5) " > 
<polygon style="stroke:#000000; fill:none; stroke-width:0.9" points="10.62, 10.62 45, 10.62 45, 0 90, 0 90, 10.62 126, 10.62 126, 0 162, 0 162, 10.62 198, 10.62 198, 0 234, 0 234, 10.62 270, 10.62 270, 0 306, 0 306, 10.62 342, 10.62 342, 0 378, 0 378, 10.62 414, 10.62 414, 0 450, 0 450, 10.62 486, 10.62 486, 0 522, 0 522, 10.62 558, 10.62 558, 0 594, 0 594, 10.62 630, 10.62 630, 0 675, 0 675, 10.62 709.38, 10.62 709.38, 45 720, 45 720, 90 709.38, 90 709.38, 126 720, 126 720, 162 709.38, 162 709.38, 198 720, 198 720, 234 709.38, 234 709.38, 270 720, 270 720, 315 709.38, 315 709.38, 349.38 675, 349.38 675, 360 630, 360 630, 349.38 594, 349.38 594, 360 558, 360 558, 349.38 522, 349.38 522, 360 486, 360 486, 349.38 450, 349.38 450, 360 414, 360 414, 349.38 378, 349.38 378, 360 342, 360 342, 349.38 306, 349.38 306, 360 270, 360 270, 349.38 234, 349.38 234, 360 198, 360 198, 349.38 162, 349.38 162, 360 126, 360 126, 349.38 90, 349.38 90, 360 45, 360 45, 349.38 10.62, 349.38 10.62, 315 0, 315 0, 270 10.62, 270 10.62, 234 0, 234 0, 198 10.62, 198 10.62, 162 0, 162 0, 126 10.62, 126 10.62, 90 0, 90 0, 45 10.62, 45 "/> 
</g>
<!-- Bottom--> 
<g transform="translate(742.5, 202.5) " > 
<polygon style="stroke:#000000; fill:none; stroke-width:0.9" points="10.62, 10.62 45, 10.62 45, 0 90, 0 90, 10.62 126, 10.62 126, 0 162, 0 162, 10.62 198, 10.62 198, 0 234, 0 234, 10.62 270, 10.62 270, 0 306, 0 306, 10.62 342, 10.62 342, 0 378, 0 378, 10.62 414, 10.62 414, 0 450, 0 450, 10.62 486, 10.62 486, 0 522, 0 522, 10.62 558, 10.62 558, 0 594, 0 594, 10.62 630, 10.62 630, 0 675, 0 675, 10.62 709.38, 10.62 709.38, 45 720, 45 720, 90 709.38, 90 709.38, 126 720, 126 720, 162 709.38, 162 709.38, 198 720, 198 720, 234 709.38, 234 709.38, 270 720, 270 720, 315 709.38, 315 709.38, 349.38 675, 349.38 675, 360 630, 360 630, 349.38 594, 349.38 594, 360 558, 360 558, 349.38 522, 349.38 522, 360 486, 360 486, 349.38 450, 349.38 450, 360 414, 360 414, 349.38 378, 349.38 378, 360 342, 360 342, 349.38 306, 349.38 306, 360 270, 360 270, 349.38 234, 349.38 234, 360 198, 360 198, 349.38 162, 349.38 162, 360 126, 360 126, 349.38 90, 349.38 90, 360 45, 360 45, 349.38 10.62, 349.38 10.62, 315 0, 315 0, 270 10.62, 270 10.62, 234 0, 234 0, 198 10.62, 198 10.62, 162 0, 162 0, 126 10.62, 126 10.62, 90 0, 90 0, 45 10.62, 45 "/> 
</g></svg>